<svg xmlns="http://www.w3.org/2000/svg" width="45.261" height="45.261" viewBox="0 0 45.261 45.261"><defs><style>.a{fill:none;}.b{fill:#333;}</style></defs><path class="a" d="M0,0H45.261V45.261H0Z"/><path class="b" d="M33.616,1H13.872A3.867,3.867,0,0,0,9.923,4.756v5.633h3.949V6.633H33.616V36.678H13.872V32.923H9.923v5.633a3.867,3.867,0,0,0,3.949,3.756H33.616a3.867,3.867,0,0,0,3.949-3.756V4.756A3.867,3.867,0,0,0,33.616,1ZM17.426,19.778V16.961c0-2.629-2.764-4.695-5.528-4.695s-5.528,2.066-5.528,4.695v2.817A2.488,2.488,0,0,0,4,22.032V28.6a2.515,2.515,0,0,0,2.369,2.441H17.229A2.534,2.534,0,0,0,19.8,28.792V22.219A2.515,2.515,0,0,0,17.426,19.778Zm-2.567,0H8.936V16.961c0-1.5,1.382-2.441,2.962-2.441s2.962.939,2.962,2.441Z" transform="translate(1.773 0.974)"/></svg>