<svg xmlns="http://www.w3.org/2000/svg" width="52.444" height="52.444" viewBox="0 0 52.444 52.444"><defs><style>.a{fill:none;}.b{fill:#3598db;}</style></defs><path class="a" d="M0,0H52.444V52.444H0Z"/><path class="b" d="M38.317,1H15.439a4.481,4.481,0,0,0-4.576,4.352v6.528h4.576V7.528H38.317V42.341H15.439V37.99H10.863v6.528a4.481,4.481,0,0,0,4.576,4.352H38.317a4.481,4.481,0,0,0,4.576-4.352V5.352A4.481,4.481,0,0,0,38.317,1ZM19.557,22.759V19.495c0-3.046-3.2-5.44-6.406-5.44s-6.406,2.393-6.406,5.44v3.264A2.883,2.883,0,0,0,4,25.37v7.615a2.914,2.914,0,0,0,2.745,2.829H19.328A2.936,2.936,0,0,0,22.3,33.2V25.587A2.914,2.914,0,0,0,19.557,22.759Zm-2.974,0H9.719V19.495c0-1.741,1.6-2.829,3.432-2.829s3.432,1.088,3.432,2.829Z" transform="translate(2.689 1.288)"/></svg>