<svg xmlns="http://www.w3.org/2000/svg" width="53" height="53" viewBox="0 0 53 53"><defs><style>.a{fill:none;}.b{fill:#333;}</style></defs><path class="a" d="M0,0H53V53H0Z"/><path class="b" d="M44.167,34.917A4.43,4.43,0,0,0,48.583,30.5V8.417A4.43,4.43,0,0,0,44.167,4H8.833A4.43,4.43,0,0,0,4.417,8.417V30.5a4.415,4.415,0,0,0,4.417,4.417H2.208a2.208,2.208,0,0,0,0,4.417H50.792a2.208,2.208,0,0,0,0-4.417Zm-15.458-7.8V22.285c-6.139,0-10.18,1.877-13.25,6.007,1.237-5.9,4.66-11.77,13.25-12.963v-4.7l7.972,7.42a1.108,1.108,0,0,1,0,1.612Z" transform="translate(0 4.833)"/></svg>