<svg xmlns="http://www.w3.org/2000/svg" width="63" height="63" viewBox="0 0 63 63"><defs><style>.a{fill:none;}.b{fill:#3598db;}</style></defs><path class="a" d="M0,0H63V63H0Z"/><path class="b" d="M52.5,40.75a5.265,5.265,0,0,0,5.25-5.25V9.25A5.265,5.265,0,0,0,52.5,4h-42A5.265,5.265,0,0,0,5.25,9.25V35.5a5.249,5.249,0,0,0,5.25,5.25H2.625a2.625,2.625,0,0,0,0,5.25h57.75a2.625,2.625,0,0,0,0-5.25ZM34.125,31.484V25.735c-7.3,0-12.1,2.231-15.75,7.14,1.47-7.009,5.539-13.991,15.75-15.409V11.875l9.476,8.82a1.317,1.317,0,0,1,0,1.916Z" transform="translate(0 6.5)"/></svg>